<svg width="64" height="28" viewBox="0 0 74 38" fill="none" xmlns="http://www.w3.org/2000/svg">
<path d="M16.0486 34.7375L16.031 27.2675L11.149 35.4245C10.9564 35.7466 10.6073 35.9438 10.2307 35.9438H9.56421C9.21295 35.9438 8.88699 35.7616 8.70429 35.4629L3.83126 27.4932V37.7994H0V20.2459H3.3775L9.98109 31.1542L16.4843 20.2459H19.8369L19.8871 37.7994H19.1336C17.4326 37.7994 16.0524 36.4298 16.0486 34.7375Z" fill="#969AA7"/>
<path d="M32.4784 32.1573H23.2136C23.398 32.9936 23.835 33.6537 24.5243 34.1384C25.2131 34.6236 26.07 34.8655 27.095 34.8655C27.8005 34.8655 28.4267 34.7614 28.9727 34.5519C29.1044 34.5015 29.2339 34.4439 29.3613 34.3795C30.114 33.9981 31.0249 34.1299 31.5975 34.7477L32.5899 35.8183C31.3127 37.2729 29.4475 38 26.9942 38C25.4652 38 24.1121 37.7034 22.9361 37.1095C21.7596 36.5164 20.8525 35.6924 20.2139 34.6394C19.5753 33.5863 19.2562 32.3911 19.2562 31.0535C19.2562 29.7329 19.5715 28.542 20.2015 27.48C20.8315 26.4184 21.697 25.591 22.7976 24.9975C23.8981 24.4044 25.129 24.107 26.4899 24.107C27.8173 24.107 29.0186 24.3916 30.0942 24.9595C31.1695 25.5279 32.0139 26.3428 32.6272 27.4044C33.2406 28.466 33.5472 29.6987 33.5472 31.103L33.5468 31.1217C33.5313 31.6986 33.0574 32.1573 32.4784 32.1573ZM24.2725 27.8192C23.6673 28.321 23.2976 29.0062 23.1634 29.8754H29.8429C29.7082 29.0229 29.3385 28.3419 28.7338 27.8316C28.1286 27.3217 27.3892 27.0669 26.5156 27.0669C25.6248 27.0669 24.8772 27.3174 24.2725 27.8192Z" fill="#969AA7"/>
<path d="M13.9384 14.8453H5.74667L4.18381 18.6066H0L7.12684 2.69878C7.57503 1.69819 8.57348 1.05347 9.67486 1.05347H11.8969L19.7863 18.6066H15.5013L13.9384 14.8453ZM12.6531 11.7608L9.85542 5.04044L7.05779 11.7608H12.6531Z" fill="#969AA7"/>
<path d="M20.292 0H24.224V18.6062H20.292V0Z" fill="#969AA7"/>
<path d="M25.2277 0H29.1597V18.6062H25.2277V0Z" fill="#969AA7"/>
<path d="M33.2058 17.9167C32.0714 17.3236 31.1849 16.4996 30.5467 15.4466C29.9081 14.3935 29.589 13.1983 29.589 11.8607C29.589 10.5234 29.9081 9.32785 30.5467 8.27478C31.1853 7.22171 32.0718 6.39821 33.2058 5.80468C34.3402 5.21159 35.6213 4.91418 37.0495 4.91418C38.4773 4.91418 39.7545 5.21116 40.8808 5.80468C42.0066 6.39821 42.8888 7.22171 43.5274 8.27478C44.166 9.32785 44.4856 10.5234 44.4856 11.8607C44.4856 13.1983 44.166 14.3931 43.5274 15.4466C42.8888 16.4996 42.0066 17.3236 40.8808 17.9167C39.7549 18.5102 38.4777 18.8072 37.0495 18.8072C35.6209 18.8072 34.3402 18.5106 33.2058 17.9167ZM39.5323 14.5817C40.1791 13.9045 40.5029 12.9978 40.5029 11.8607C40.5029 10.724 40.1791 9.81683 39.5323 9.14011C38.8851 8.46338 38.0578 8.12459 37.0499 8.12459C36.0416 8.12459 35.2096 8.46338 34.5547 9.14011C33.8993 9.81726 33.5716 10.724 33.5716 11.8607C33.5716 12.9978 33.8993 13.9045 34.5547 14.5817C35.21 15.2584 36.0416 15.5972 37.0499 15.5972C38.0578 15.5972 38.8851 15.2588 39.5323 14.5817Z" fill="#969AA7"/>
<path d="M66.4936 5.01532L61.5785 18.5059H57.7978L54.748 10.1305L51.5974 18.5059H47.8168L42.927 5.01532H46.6322L49.833 14.1426L53.1603 5.01532H56.4876L59.7137 14.1426L62.9226 5.27176C62.9784 5.11772 63.1251 5.01489 63.2898 5.01489H66.4936V5.01532Z" fill="#969AA7"/>
<path d="M36.6122 34.5938V24.5012H37.2354L44.4671 33.6855H44.1338V24.5012H44.8729V34.5938H44.2642L37.018 25.4095H37.3513V34.5938H36.6122Z" fill="#656A7B"/>
<path d="M51.2561 34.6515C50.4929 34.6515 49.8165 34.4881 49.2272 34.1613C48.6475 33.8345 48.1886 33.3827 47.8504 32.806C47.5219 32.2293 47.3577 31.5708 47.3577 30.8307C47.3577 30.081 47.5122 29.4225 47.8214 28.8554C48.1402 28.2787 48.575 27.8269 49.1257 27.5001C49.6764 27.1733 50.2948 27.0099 50.9808 27.0099C51.6667 27.0099 52.2803 27.1685 52.8213 27.4857C53.372 27.8029 53.802 28.2499 54.1111 28.8266C54.43 29.3937 54.5894 30.0521 54.5894 30.8019C54.5894 30.8307 54.5846 30.8643 54.5749 30.9028C54.5749 30.9316 54.5749 30.9653 54.5749 31.0037H47.8939V30.4414H54.1836L53.8937 30.7154C53.9034 30.129 53.7778 29.6052 53.5169 29.1438C53.2657 28.6728 52.9228 28.3075 52.488 28.048C52.0532 27.7789 51.5508 27.6443 50.9808 27.6443C50.4204 27.6443 49.918 27.7789 49.4735 28.048C49.0388 28.3075 48.6958 28.6728 48.4446 29.1438C48.1934 29.6052 48.0678 30.1338 48.0678 30.7298V30.8595C48.0678 31.4747 48.203 32.0226 48.4736 32.5032C48.7538 32.9742 49.1354 33.3443 49.6185 33.6134C50.1016 33.8729 50.6523 34.0027 51.2706 34.0027C51.7537 34.0027 52.203 33.9162 52.6184 33.7432C53.0435 33.5701 53.401 33.3058 53.6908 32.9502L54.1111 33.426C53.7826 33.8297 53.3672 34.1373 52.8648 34.3487C52.372 34.5506 51.8358 34.6515 51.2561 34.6515Z" fill="#656A7B"/>
<path d="M58.1678 34.5938L55.2983 27.0676H55.9939L58.6605 34.1901H58.3562L61.0952 27.0676H61.7184L64.443 34.1901H64.1242L66.8343 27.0676H67.5009L64.6314 34.5938H63.9503L61.2836 27.7597H61.5155L58.8344 34.5938H58.1678Z" fill="#656A7B"/>
<path d="M71.0145 34.6515C70.3865 34.6515 69.7972 34.5602 69.2465 34.3776C68.7054 34.1949 68.2851 33.9642 67.9856 33.6855L68.3189 33.1088C68.6088 33.3587 68.9953 33.575 69.4783 33.7576C69.9614 33.9306 70.4831 34.0171 71.0435 34.0171C71.8358 34.0171 72.4058 33.8873 72.7536 33.6278C73.1014 33.3683 73.2754 33.0271 73.2754 32.6041C73.2754 32.2965 73.1836 32.0562 73 31.8832C72.8261 31.7006 72.5894 31.5612 72.2899 31.4651C71.9904 31.369 71.6619 31.2921 71.3044 31.2344C70.9469 31.1671 70.5894 31.095 70.2319 31.0181C69.8745 30.9412 69.546 30.8307 69.2465 30.6865C68.9469 30.5423 68.7054 30.3453 68.5218 30.0954C68.3479 29.8359 68.261 29.4946 68.261 29.0717C68.261 28.6872 68.3672 28.3412 68.5798 28.0336C68.7924 27.726 69.1112 27.4809 69.5363 27.2983C69.9614 27.106 70.4928 27.0099 71.1305 27.0099C71.6039 27.0099 72.0773 27.0772 72.5507 27.2118C73.0338 27.3463 73.4251 27.5242 73.7246 27.7452L73.3913 28.322C73.0725 28.0817 72.715 27.9086 72.3188 27.8029C71.9227 27.6972 71.5218 27.6443 71.116 27.6443C70.3817 27.6443 69.8406 27.7789 69.4928 28.048C69.1547 28.3172 68.9856 28.6536 68.9856 29.0573C68.9856 29.3745 69.0725 29.6292 69.2465 29.8214C69.43 30.0041 69.6716 30.1483 69.9711 30.254C70.2706 30.3501 70.5991 30.4318 70.9566 30.4991C71.314 30.5568 71.6715 30.624 72.029 30.7009C72.3865 30.7778 72.715 30.8884 73.0145 31.0326C73.314 31.1671 73.5507 31.3594 73.7246 31.6093C73.9082 31.8496 74 32.1764 74 32.5897C74 33.003 73.884 33.3635 73.6522 33.6711C73.4299 33.9787 73.0966 34.219 72.6522 34.392C72.2077 34.565 71.6619 34.6515 71.0145 34.6515Z" fill="#656A7B"/>
</svg>
